# xmcd CD database file
#
# Track frame offsets:
#	150
#	30758
#	45260
#	74098
#	111708
#	134195
#
# Disc length: 2232 seconds
#
# Revision: 0
# Processed by: cddbd v1.5PL3 Copyright (c) Steve Scherf et al.
# Submitted via: CDex 1.50
#
DISCID=5708b606
DTITLE=Kizo Inoue - Intimate
DYEAR=1979
DGENRE=Jazz
TTITLE0=Mwsik part1
TTITLE1=Intimate
TTITLE2=Mwsik part2
TTITLE3=Analogue Pendulum
TTITLE4=Kitsu-Tsuki
TTITLE5=Night Heron
EXTD=YEAR: 1979
EXTT0=
EXTT1=
EXTT2=
EXTT3=
EXTT4=
EXTT5=
PLAYORDER=
